<svg width="76" height="97" viewBox="0 0 76 97" fill="none" xmlns="http://www.w3.org/2000/svg">
<path d="M37.0325 48.6464H24.719V47.1742H35.6675V32.9854H37.0325V48.6464Z" fill="white"/>
<path d="M51.281 48.6464H38.9675V32.9854H40.3324V47.1742H51.281V48.6464Z" fill="white"/>
<path d="M37.0325 77.4431H35.6675V52.3486H24.719V50.8765H37.0325V77.4431Z" fill="white"/>
<path d="M40.3324 77.4431H38.9675V50.8765H51.281V52.3486H40.3324V77.4431Z" fill="white"/>
<path d="M41.8096 29.8015V29.8403C41.5851 29.7725 41.3718 29.7144 41.1563 29.6611L41.0688 28.7216L40.9386 26.9347C40.8375 25.741 40.7971 24.5497 40.7275 23.3584C40.6557 22.2131 40.64 21.0679 40.5996 19.925V19.8427C40.5251 19.1183 40.2139 18.4462 39.7218 17.9468C39.2256 17.4686 38.5834 17.2043 37.918 17.2043C37.2526 17.2043 36.6104 17.4686 36.1142 17.9468C35.8669 18.1902 35.6656 18.4829 35.5215 18.8088C35.3651 19.1314 35.2669 19.483 35.2319 19.8451V19.9371C35.1915 21.0776 35.1129 29.9662 35.1129 29.9662C34.8885 30.034 34.215 30.1042 34.0264 30.1768L33.9905 19.7822V19.6587H34.0062C34.081 18.5933 34.5262 17.5978 35.2526 16.8714C35.979 16.145 36.933 15.7415 37.9236 15.7415C38.9142 15.7415 39.8682 16.145 40.5946 16.8714C41.321 17.5978 41.7662 18.5933 41.841 19.6587H41.859V19.7822L41.841 25.2349C41.841 29.1502 46.0413 31.3052 46.0413 31.3052C44.6855 30.6398 43.2666 30.1356 41.8096 29.8015Z" fill="white"/>
<path d="M62.3755 80.3752H64.8202L62.9884 46.5737L62.3755 80.3752Z" fill="white"/>
<path d="M2.42902 47.5521H4.67395V44.2978H6.6944C13.6717 41.8935 13.8961 33.2276 13.8961 33.2276H16.1254L16.1141 61.7651L16.1343 80.3753H16.956V27.0678H21.8814L21.9263 29.4455L21.9532 29.4165V29.4891L21.924 29.4576L22.1014 35.4673L22.1934 38.4722L22.3146 41.477H22.4067L24.2026 28.2809C25.7741 27.0073 27.8327 24.7022 27.9719 21.3317H30.2168V15.9298C30.2168 15.9298 34.1926 13.569 34.2869 10.0484H41.7535C41.8635 13.5593 45.8393 15.9298 45.8393 15.9298V21.3293H48.0842C48.293 26.414 51.8602 28.2058 51.8602 28.2058L53.5394 39.6949H53.6292L53.7527 38.6077L53.8425 35.5569L54.0221 29.4552L54.0648 27.0751L59.5738 27.109V28.0097V80.3777H61.4618L60.2944 61.7651V33.2276H62.1712C62.1712 33.2276 62.3957 41.8935 69.3752 44.2978H71.3956V47.5521H73.562V80.3753H75.991V18.5012C75.991 13.5948 74.1841 8.88932 70.9677 5.41974C67.7512 1.95015 63.3887 0.000642116 58.8397 0H0C0 0 0.0269392 79.678 0 80.3874H2.42902V47.5521Z" fill="white"/>
<path d="M23.2059 64.356C23.2351 62.5424 23.1879 60.724 23.1812 58.9153C23.1677 57.6369 23.0869 52.7095 23.0869 52.7095C23.0869 52.4674 23.0869 52.2495 23.0869 52.017V51.3245C23.0869 51.0824 23.1273 50.8645 23.1453 50.6344L23.2059 49.9444C23.2328 49.7143 23.2845 49.4892 23.3204 49.2616C23.3563 49.034 23.4012 48.8064 23.4326 48.5763C23.4641 48.3463 23.5381 48.126 23.5898 47.9008C24.0283 46.0791 24.7412 44.3474 25.7 42.7749C26.6816 41.1647 27.894 39.7328 29.2919 38.5327C30.7428 37.298 32.3618 36.3122 34.0916 35.6102L34.0489 35.4189C31.2714 36.1376 28.7146 37.6221 26.6289 39.7269C24.5432 41.8318 23.0001 44.4848 22.1508 47.4262C21.6115 49.3307 21.3628 51.317 21.4144 53.3076H21.3965V53.4746L21.374 64.356L21.4032 75.2349L21.4167 80.3681L23.1812 80.4359L23.2059 64.356Z" fill="white"/>
<path d="M54.3185 53.4819V53.3996H54.2983C54.3645 51.3891 54.1225 49.3807 53.5822 47.4552C52.7394 44.5239 51.2055 41.8787 49.1305 39.7786C47.0555 37.6785 44.5105 36.1955 41.7446 35.4746L41.7222 35.5715C43.5067 36.1592 45.1896 37.0589 46.7037 38.2349C47.0629 38.5472 47.4468 38.8233 47.7835 39.1623C48.1202 39.5012 48.4772 39.8088 48.787 40.1744C49.4363 40.8682 50.0275 41.6225 50.5537 42.4286C51.6043 44.0259 52.3897 45.8078 52.875 47.695C52.9334 47.9371 53.0007 48.1623 53.0524 48.3971L53.1826 49.1235C53.223 49.3657 53.2791 49.5957 53.3105 49.8354L53.3869 50.5618C53.4093 50.8039 53.4452 51.046 53.4587 51.2882L53.4767 52.0146C53.4767 52.2567 53.4946 52.4988 53.4924 52.741L53.4654 53.4673L53.434 54.3148H53.4789C53.443 57.6707 53.434 61.0267 53.4318 64.385C53.4452 68.017 53.4564 71.6489 53.5148 75.264C53.5305 76.9734 53.5687 78.6853 53.6136 80.3971H54.314V75.264L54.3185 53.4819Z" fill="white"/>
<path d="M41.8232 25.2325L41.8411 19.7797V19.6562H41.8232C41.7484 18.5909 41.3032 17.5954 40.5768 16.869C39.8503 16.1426 38.8963 15.739 37.9058 15.739C36.9152 15.739 35.9612 16.1426 35.2348 16.869C34.5084 17.5954 34.0632 18.5909 33.9884 19.6562H33.9727V19.7797L34.0086 30.1744C34.2061 30.1017 34.8796 30.0315 35.0951 29.9637C35.0951 29.9637 35.1737 21.0751 35.2141 19.9347V19.8427C35.249 19.4806 35.3473 19.1289 35.5037 18.8063C35.7196 18.3205 36.0598 17.9114 36.4842 17.6274C36.9087 17.3434 37.3996 17.1963 37.899 17.2034C38.5632 17.1978 39.2048 17.4634 39.695 17.9468C40.1871 18.4462 40.4982 19.1183 40.5728 19.8427V19.925C40.6132 21.0678 40.6289 22.2131 40.7007 23.3584C40.7703 24.5497 40.8107 25.741 40.9117 26.9347L41.042 28.7216L41.1295 29.6611C41.354 29.7143 41.5628 29.7724 41.7828 29.8402V29.8015C43.2335 30.1362 44.6464 30.6395 45.9965 31.3027C45.9965 31.3027 41.8232 29.1478 41.8232 25.2325Z" fill="white"/>
<path d="M16.1636 97H16.2534C16.2545 96.9912 16.2545 96.9822 16.2534 96.9734H16.1614L16.1636 97Z" fill="white"/>
<path d="M76 80.3281H0V82.6016H76V80.3281Z" fill="white"/>
</svg>
